PathFileType	4	(X/Y/Z)	OpenSim_Sub11_EMGPreOp_Accel.trc
DataRate	CameraRate	NumFrames	NumMarkers	Units	OrigDataRate	OrigDataStartFrame	OrigNumFrames
100	100	13	8	m	100	3679	5885
Frame#	Time	torso_imu_offset_imu	pelvis_imu_offset_imu	tibia_r_imu_offset_imu	femur_r_imu_offset_imu	tibia_l_imu_offset_imu	femur_l_imu_offset_imu	toes_r_imu_offset_imu	toes_l_imu_offset_imu
				X1	Y1	Z1	X2	Y2	Z2	X3	Y3	Z3	X4	Y4	Z4	X5	Y5	Z5	X6	Y6	Z6	X7	Y7	Z7	X8		Y8	Z8	

3679	36.78000000	9.34373200	-0.35565188	3.98777704	9.05609590	1.54570133	2.63658282	9.97636351	0.06861884	1.14744415	9.53708427	1.46576526	-2.74494666	9.90314064	-4.38561146	-0.66561816	9.30271240	3.02683798	1.04474193	4.58247502	-0.59047645	8.58865488	12.35206364	-1.20598225	0.75702810
3680	36.79000000	9.24770244	-0.43485180	4.08777604	8.95631898	1.56048419	2.90479751	9.96686453	0.21059713	1.25596750	9.60342497	1.41081622	-2.71216560	10.68958324	-4.15280914	0.56742963	9.38530817	3.20100738	0.95387606	4.67843094	-0.43790996	8.58155381	13.23973122	1.29455866	-3.39787521
3681	36.80000000	9.23518694	-0.39224313	4.25136475	9.02226649	1.46297935	3.16907330	10.03120643	0.36066154	1.21281281	9.61570667	1.29680795	-2.67375480	12.30939948	-2.22664335	2.10059026	9.62991287	3.43441355	0.82860650	4.60811908	-0.47996505	8.67005039	12.37332100	-6.17727724	1.17628083
3682	36.81000000	9.31912446	-0.37204534	4.42668305	9.17867342	1.27649871	3.35079676	10.12750688	0.38146143	1.15043258	9.60076367	1.27960266	-2.69117230	12.89953298	-0.56146944	2.33764493	9.93477721	3.99220007	0.86865735	4.69592422	-0.46934200	8.63772779	11.85652639	-14.76899578	7.67980205
3683	36.82000000	9.41933055	-0.31459610	4.53910059	9.41786415	0.98012411	3.52019666	10.16394248	0.32182742	1.09644453	9.46337689	1.23644553	-2.64961074	11.64504852	-1.03525524	2.40539552	10.49912268	4.48394628	1.26394357	4.37829405	-0.58201421	8.71686373	12.15291256	-10.64567887	13.79748726
3684	36.83000000	9.58034433	-0.24273938	4.58078070	9.66769207	0.72138578	3.75065886	10.12592461	0.25122215	0.90906833	9.24784220	1.18765410	-2.62193712	10.14981808	-0.75059301	4.21308829	11.43132549	5.19953762	1.32139783	4.96320063	-0.39672528	8.54985284	10.61059269	-9.88217841	11.19600571
3685	36.84000000	9.70098719	-0.17662276	4.71523555	9.94941824	0.54514203	3.90433516	10.12313057	0.24534519	0.64117329	9.12912799	1.18556221	-2.62095608	10.07349362	0.73958555	7.18921061	12.39368577	6.18484190	0.67143173	4.78847480	-0.58230372	8.60326841	1.22847441	2.51860634	5.03359927
3686	36.85000000	9.87047204	-0.11072616	4.75868758	10.09160888	0.44785005	3.81226393	10.23897018	0.39976734	0.65875473	9.18069216	1.29890963	-2.74005746	10.09231054	1.30797133	6.62976461	12.13271532	6.26641767	0.26244476	4.47512608	-0.65351457	8.77727724	8.29665148	10.10644457	13.23462136
3687	36.86000000	9.95247184	0.03019884	4.64555187	10.06651824	0.62492839	3.69631951	10.25563833	0.70928613	0.87902258	9.25878397	1.36735436	-3.09030548	9.69086525	1.16960768	3.90053032	10.98618425	5.07558787	1.05202473	4.41679072	-0.75386178	8.66516669	5.97128875	1.14956217	6.34605790
3688	36.87000000	9.84905537	0.15499729	4.38618823	9.92121636	0.88501655	3.62647991	10.08580294	0.94149860	1.10008173	9.12758563	1.41992515	-3.05274150	10.08590670	-0.48226690	4.02384203	10.06734095	3.52728360	2.36200801	4.82781787	-0.64388750	8.58021503	5.80985847	-3.16879335	8.50271151
3689	36.88000000	9.72919342	0.31584980	4.17278651	9.69914337	1.22557351	3.46885067	9.89471873	1.10555648	1.21957250	9.20087104	1.51518244	-3.06959019	10.94048241	-2.65864746	2.85646201	9.77032368	2.58714332	2.78673477	4.64425535	-0.64259143	8.60834448	5.68818395	-3.68121653	8.38239282
3690	36.89000000	9.55049228	0.53658038	4.04546754	9.32352230	1.78651890	3.58213621	9.91871360	1.25130895	1.38687463	9.42998340	1.50167633	-3.09735446	10.62634825	-3.92096856	0.26418345	9.38413754	1.92695331	1.46951317	4.72272779	-0.59106860	8.74119783	4.83259687	-5.93475745	7.69170190
3691	36.90000000	9.36684658	0.78106412	3.95375615	8.92880405	2.01690111	3.80568826	10.08660068	1.09738554	1.48917690	9.89532641	1.55253187	-3.18515854	9.27909001	-2.47280967	-0.44763557	8.37314557	1.71212689	-0.14536573	4.86935084	-0.58620879	8.49139036	7.40712947	2.96957944	6.51426705
